%TF.GenerationSoftware,KiCad,Pcbnew,10.0.4*%
%TF.CreationDate,2026-09-20T16:22:12+05:30*%
%TF.ProjectId,opa656_test,6f706136-3536-45f7-9465-73742e6b6963,rev?*%
%TF.SameCoordinates,Original*%
%TF.FileFunction,Copper,L1,Top*%
%TF.FilePolarity,Positive*%
%FSLAX46Y46*%
G04 Gerber Fmt 4.6, Leading zero omitted, Abs format (unit mm)*
G04 Created by KiCad (PCBNEW 10.0.4) date 2026-09-20 16:22:12*
%MOMM*%
%LPD*%
G01*
G04 APERTURE LIST*
G04 Aperture macros list*
%AMRoundRect*
0 Rectangle with rounded corners*
0 $1 Rounding radius*
0 $2 $3 $4 $5 $6 $7 $8 $9 X,Y pos of 4 corners*
0 Add a 4 corners polygon primitive as box body*
4,1,4,$2,$3,$4,$5,$6,$7,$8,$9,$2,$3,0*
0 Add four circle primitives for the rounded corners*
1,1,$1+$1,$2,$3*
1,1,$1+$1,$4,$5*
1,1,$1+$1,$6,$7*
1,1,$1+$1,$8,$9*
0 Add four rect primitives between the rounded corners*
20,1,$1+$1,$2,$3,$4,$5,0*
20,1,$1+$1,$4,$5,$6,$7,0*
20,1,$1+$1,$6,$7,$8,$9,0*
20,1,$1+$1,$8,$9,$2,$3,0*%
G04 Aperture macros list end*
%TA.AperFunction,SMDPad,CuDef*%
%ADD10RoundRect,0.150000X-0.825000X-0.150000X0.825000X-0.150000X0.825000X0.150000X-0.825000X0.150000X0*%
%TD*%
%TA.AperFunction,SMDPad,CuDef*%
%ADD11RoundRect,0.250000X0.262500X0.450000X-0.262500X0.450000X-0.262500X-0.450000X0.262500X-0.450000X0*%
%TD*%
%TA.AperFunction,ComponentPad*%
%ADD12R,1.700000X1.700000*%
%TD*%
%TA.AperFunction,ComponentPad*%
%ADD13C,1.700000*%
%TD*%
%TA.AperFunction,SMDPad,CuDef*%
%ADD14RoundRect,0.250000X0.475000X-0.250000X0.475000X0.250000X-0.475000X0.250000X-0.475000X-0.250000X0*%
%TD*%
%TA.AperFunction,SMDPad,CuDef*%
%ADD15RoundRect,0.250000X-0.262500X-0.450000X0.262500X-0.450000X0.262500X0.450000X-0.262500X0.450000X0*%
%TD*%
%TA.AperFunction,SMDPad,CuDef*%
%ADD16RoundRect,0.250000X-0.250000X-0.475000X0.250000X-0.475000X0.250000X0.475000X-0.250000X0.475000X0*%
%TD*%
%TA.AperFunction,ViaPad*%
%ADD17C,0.600000*%
%TD*%
%TA.AperFunction,Conductor*%
%ADD18C,0.200000*%
%TD*%
G04 APERTURE END LIST*
D10*
%TO.P,X4,1,VIN_1*%
%TO.N,/Shaped_Out*%
X122321346Y-94485000D03*
%TO.P,X4,2,V_REF_TOP_2*%
%TO.N,Net-(X4-V_REF_TOP)*%
X122321346Y-95755000D03*
%TO.P,X4,3,V_REF_BOTTOM_3*%
%TO.N,GND*%
X122321346Y-97025000D03*
%TO.P,X4,4,BIT_2_4*%
%TO.N,/BIT_2*%
X122321346Y-98295000D03*
%TO.P,X4,5,BIT_1_5*%
%TO.N,/BIT_1*%
X127271346Y-98295000D03*
%TO.P,X4,6,BIT_0_6*%
%TO.N,/BIT_0*%
X127271346Y-97025000D03*
%TO.P,X4,7,VDD_7*%
%TO.N,Net-(X4-VDD)*%
X127271346Y-95755000D03*
%TO.P,X4,8,VSS_8*%
%TO.N,Net-(X4-VSS)*%
X127271346Y-94485000D03*
%TD*%
D11*
%TO.P,Rpz1,1*%
%TO.N,Net-(X2-IN_MINUS)*%
X111928846Y-97086346D03*
%TO.P,Rpz1,2*%
%TO.N,/vout*%
X110103846Y-97086346D03*
%TD*%
D12*
%TO.P,I1,1*%
%TO.N,GND*%
X96217692Y-90601346D03*
D13*
%TO.P,I1,2*%
%TO.N,Net-(X1-IN_MINUS)*%
X96217692Y-93141346D03*
%TO.P,I1,3*%
%TO.N,N/C*%
X96217692Y-95681346D03*
%TD*%
D14*
%TO.P,Cf1,1*%
%TO.N,Net-(X1-IN_MINUS)*%
X100741346Y-95191346D03*
%TO.P,Cf1,2*%
%TO.N,/vout*%
X100741346Y-93291346D03*
%TD*%
D12*
%TO.P,v2,1,+_1*%
%TO.N,Net-(X1-VCC)*%
X137546346Y-93810000D03*
D13*
%TO.P,v2,2,-_2*%
%TO.N,GND*%
X137546346Y-96350000D03*
%TO.P,v2,3*%
%TO.N,N/C*%
X137546346Y-98890000D03*
%TD*%
D15*
%TO.P,R1,1*%
%TO.N,/vout*%
X99078846Y-96991346D03*
%TO.P,R1,2*%
%TO.N,Net-(X1-IN_MINUS)*%
X100903846Y-96991346D03*
%TD*%
D16*
%TO.P,Cf2,1*%
%TO.N,Net-(X2-IN_MINUS)*%
X113753846Y-101991346D03*
%TO.P,Cf2,2*%
%TO.N,/Shaped_Out*%
X115653846Y-101991346D03*
%TD*%
%TO.P,Cd1,1*%
%TO.N,Net-(X1-IN_MINUS)*%
X99341346Y-91241346D03*
%TO.P,Cd1,2*%
%TO.N,GND*%
X101241346Y-91241346D03*
%TD*%
D12*
%TO.P,J1,1,Pin_1_1*%
%TO.N,/BIT_2*%
X157591346Y-93685000D03*
D13*
%TO.P,J1,2,Pin_2_2*%
%TO.N,/BIT_1*%
X157591346Y-96225000D03*
%TO.P,J1,3,Pin_3_3*%
%TO.N,/BIT_0*%
X157591346Y-98765000D03*
%TD*%
D15*
%TO.P,R3,1*%
%TO.N,GND*%
X106578846Y-99991346D03*
%TO.P,R3,2*%
%TO.N,/vout*%
X108403846Y-99991346D03*
%TD*%
D12*
%TO.P,v3,1,+_1*%
%TO.N,GND*%
X142136346Y-97350000D03*
D13*
%TO.P,v3,2,-_2*%
%TO.N,Net-(X1-VEE)*%
X142136346Y-99890000D03*
%TO.P,v3,3*%
%TO.N,N/C*%
X142136346Y-102430000D03*
%TD*%
D16*
%TO.P,Cs1,1*%
%TO.N,/vout*%
X110209647Y-94910963D03*
%TO.P,Cs1,2*%
%TO.N,Net-(X2-IN_MINUS)*%
X112109647Y-94910963D03*
%TD*%
D10*
%TO.P,X1,1,IN_PLUS_1*%
%TO.N,GND*%
X103016346Y-94336346D03*
%TO.P,X1,2,IN_MINUS_2*%
%TO.N,Net-(X1-IN_MINUS)*%
X103016346Y-95606346D03*
%TO.P,X1,3,VCC_3*%
%TO.N,Net-(X1-VCC)*%
X103016346Y-96876346D03*
%TO.P,X1,4,VEE_4*%
%TO.N,Net-(X1-VEE)*%
X103016346Y-98146346D03*
%TO.P,X1,5,OUT_5*%
%TO.N,/vout*%
X107966346Y-98146346D03*
%TO.P,X1,6*%
%TO.N,N/C*%
X107966346Y-96876346D03*
%TO.P,X1,7*%
X107966346Y-95606346D03*
%TO.P,X1,8*%
X107966346Y-94336346D03*
%TD*%
D15*
%TO.P,Rf2,1*%
%TO.N,/Shaped_Out*%
X117491346Y-101991346D03*
%TO.P,Rf2,2*%
%TO.N,Net-(X2-IN_MINUS)*%
X119316346Y-101991346D03*
%TD*%
D12*
%TO.P,v1,1,+_1*%
%TO.N,Net-(X4-V_REF_TOP)*%
X132956346Y-93810000D03*
D13*
%TO.P,v1,2,-_2*%
%TO.N,GND*%
X132956346Y-96350000D03*
%TO.P,v1,3*%
%TO.N,N/C*%
X132956346Y-98890000D03*
%TD*%
D12*
%TO.P,v4,1,+_1*%
%TO.N,Net-(X4-VDD)*%
X146726346Y-93810000D03*
D13*
%TO.P,v4,2,-_2*%
%TO.N,GND*%
X146726346Y-96350000D03*
%TO.P,v4,3*%
%TO.N,N/C*%
X146726346Y-98890000D03*
%TD*%
D12*
%TO.P,v5,1,+_1*%
%TO.N,GND*%
X151316346Y-93810000D03*
D13*
%TO.P,v5,2,-_2*%
%TO.N,Net-(X4-VSS)*%
X151316346Y-96350000D03*
%TO.P,v5,3*%
%TO.N,N/C*%
X151316346Y-98890000D03*
%TD*%
D10*
%TO.P,X2,1,IN_PLUS_1*%
%TO.N,GND*%
X114266346Y-94586346D03*
%TO.P,X2,2,IN_MINUS_2*%
%TO.N,Net-(X2-IN_MINUS)*%
X114266346Y-95856346D03*
%TO.P,X2,3,VCC_3*%
%TO.N,Net-(X1-VCC)*%
X114266346Y-97126346D03*
%TO.P,X2,4,VEE_4*%
%TO.N,Net-(X1-VEE)*%
X114266346Y-98396346D03*
%TO.P,X2,5,OUT_5*%
%TO.N,/Shaped_Out*%
X119216346Y-98396346D03*
%TO.P,X2,6*%
%TO.N,N/C*%
X119216346Y-97126346D03*
%TO.P,X2,7*%
X119216346Y-95856346D03*
%TO.P,X2,8*%
X119216346Y-94586346D03*
%TD*%
D17*
%TO.N,GND*%
X113741346Y-93241346D03*
X124046346Y-97390000D03*
X102241346Y-91241346D03*
X97991346Y-90241346D03*
X104991346Y-100741346D03*
X103241346Y-92991346D03*
%TO.N,Net-(X4-VDD)*%
X129046346Y-95890000D03*
%TO.N,Net-(X4-VSS)*%
X129046346Y-94485000D03*
%TO.N,Net-(X1-VCC)*%
X104491346Y-96991346D03*
X115741346Y-97241346D03*
%TO.N,Net-(X1-VEE)*%
X115741346Y-98491346D03*
X104491346Y-97991346D03*
%TD*%
%TO.N,/Shaped_Out*%
D18*
X121046346Y-94785001D02*
X121346347Y-94485000D01*
X121346347Y-94485000D02*
X122321346Y-94485000D01*
X119561898Y-98396346D02*
X121046346Y-96911898D01*
X119216346Y-98396346D02*
X115653846Y-101958846D01*
X121046346Y-96911898D02*
X121046346Y-94785001D01*
X119216346Y-98396346D02*
X117491346Y-100121346D01*
X119216346Y-98396346D02*
X119561898Y-98396346D01*
X117491346Y-100121346D02*
X117491346Y-101991346D01*
X115653846Y-101958846D02*
X115653846Y-101991346D01*
%TO.N,Net-(X4-V_REF_TOP)*%
X131681346Y-95085000D02*
X122991346Y-95085000D01*
X122991346Y-95085000D02*
X122321346Y-95755000D01*
X132956346Y-93810000D02*
X131681346Y-95085000D01*
%TO.N,GND*%
X96217692Y-90601346D02*
X97631346Y-90601346D01*
X122321346Y-97025000D02*
X123681346Y-97025000D01*
X103016346Y-94336346D02*
X103016346Y-93216346D01*
X106578846Y-99991346D02*
X105741346Y-99991346D01*
X103016346Y-93216346D02*
X103241346Y-92991346D01*
X105741346Y-99991346D02*
X104991346Y-100741346D01*
X97631346Y-90601346D02*
X97991346Y-90241346D01*
X114266346Y-94586346D02*
X113741346Y-94061346D01*
X113741346Y-94061346D02*
X113741346Y-93241346D01*
X123681346Y-97025000D02*
X124046346Y-97390000D01*
X101241346Y-91241346D02*
X102241346Y-91241346D01*
%TO.N,/BIT_2*%
X154402692Y-103580000D02*
X158741346Y-99241346D01*
X158741346Y-94835000D02*
X157591346Y-93685000D01*
X127606346Y-103580000D02*
X154402692Y-103580000D01*
X158741346Y-99241346D02*
X158741346Y-94835000D01*
X122321346Y-98295000D02*
X127606346Y-103580000D01*
%TO.N,/BIT_1*%
X127271346Y-98295000D02*
X126296347Y-98295000D01*
X139686346Y-97500000D02*
X144651346Y-92535000D01*
X125996346Y-96684448D02*
X126255794Y-96425000D01*
X144651346Y-92535000D02*
X153901346Y-92535000D01*
X126255794Y-96425000D02*
X128581346Y-96425000D01*
X125996346Y-97994999D02*
X125996346Y-96684448D01*
X128581346Y-96425000D02*
X129656346Y-97500000D01*
X129656346Y-97500000D02*
X139686346Y-97500000D01*
X126296347Y-98295000D02*
X125996346Y-97994999D01*
X153901346Y-92535000D02*
X157591346Y-96225000D01*
%TO.N,/BIT_0*%
X132261345Y-101040000D02*
X155316346Y-101040000D01*
X127271346Y-97025000D02*
X128246345Y-97025000D01*
X128246345Y-97025000D02*
X132261345Y-101040000D01*
X155316346Y-101040000D02*
X157591346Y-98765000D01*
%TO.N,Net-(X4-VDD)*%
X128911346Y-95755000D02*
X129046346Y-95890000D01*
X127271346Y-95755000D02*
X128911346Y-95755000D01*
%TO.N,Net-(X4-VSS)*%
X127271346Y-94485000D02*
X129046346Y-94485000D01*
%TO.N,Net-(X2-IN_MINUS)*%
X113753846Y-101991346D02*
X112991346Y-101228846D01*
X113291347Y-95856346D02*
X114266346Y-95856346D01*
X112109647Y-94910963D02*
X113055030Y-95856346D01*
X112991346Y-100838590D02*
X112991346Y-96156347D01*
X112991346Y-101228846D02*
X112991346Y-96156347D01*
X115169102Y-103016346D02*
X112991346Y-100838590D01*
X113158846Y-95856346D02*
X114266346Y-95856346D01*
X119316346Y-101991346D02*
X118291346Y-103016346D01*
X112991346Y-96156347D02*
X113291347Y-95856346D01*
X113055030Y-95856346D02*
X114266346Y-95856346D01*
X118291346Y-103016346D02*
X115169102Y-103016346D01*
X111928846Y-97086346D02*
X113158846Y-95856346D01*
%TO.N,/vout*%
X101716346Y-97676090D02*
X101716346Y-96490794D01*
X104031898Y-95006346D02*
X102070794Y-95006346D01*
X107966346Y-98146346D02*
X108941345Y-98146346D01*
X99078846Y-96991346D02*
X100078846Y-97991346D01*
X107366346Y-98746346D02*
X100833846Y-98746346D01*
X107966346Y-98146346D02*
X109043846Y-98146346D01*
X100833846Y-98746346D02*
X99078846Y-96991346D01*
X102000794Y-96206346D02*
X104031898Y-96206346D01*
X104291346Y-95265794D02*
X104031898Y-95006346D01*
X107966346Y-98146346D02*
X108403846Y-98583846D01*
X102070794Y-95006346D02*
X100741346Y-93676898D01*
X100078846Y-97991346D02*
X101401090Y-97991346D01*
X107171898Y-98146346D02*
X104031898Y-95006346D01*
X104291346Y-95946898D02*
X104291346Y-95265794D01*
X101716346Y-96490794D02*
X102000794Y-96206346D01*
X107966346Y-98146346D02*
X107366346Y-98746346D01*
X109043846Y-98146346D02*
X110103846Y-97086346D01*
X107966346Y-98146346D02*
X107171898Y-98146346D01*
X108941345Y-98146346D02*
X110209647Y-96878044D01*
X104031898Y-96206346D02*
X104291346Y-95946898D01*
X101401090Y-97991346D02*
X101716346Y-97676090D01*
X110209647Y-96878044D02*
X110209647Y-94910963D01*
X100741346Y-93676898D02*
X100741346Y-93291346D01*
X108403846Y-98583846D02*
X108403846Y-99991346D01*
%TO.N,Net-(X1-IN_MINUS)*%
X97441346Y-93141346D02*
X96217692Y-93141346D01*
X98682692Y-95606346D02*
X103016346Y-95606346D01*
X99341346Y-91241346D02*
X97441346Y-93141346D01*
X100903846Y-96991346D02*
X97053846Y-93141346D01*
X98267692Y-95191346D02*
X96217692Y-93141346D01*
X100741346Y-95191346D02*
X98267692Y-95191346D01*
X96217692Y-93141346D02*
X98682692Y-95606346D01*
X97053846Y-93141346D02*
X96217692Y-93141346D01*
%TO.N,Net-(X1-VCC)*%
X114266346Y-97126346D02*
X115626346Y-97126346D01*
X104376346Y-96876346D02*
X104491346Y-96991346D01*
X115626346Y-97126346D02*
X115741346Y-97241346D01*
X103016346Y-96876346D02*
X104376346Y-96876346D01*
%TO.N,Net-(X1-VEE)*%
X114266346Y-98396346D02*
X115646346Y-98396346D01*
X104336346Y-98146346D02*
X104491346Y-97991346D01*
X115646346Y-98396346D02*
X115741346Y-98491346D01*
X103016346Y-98146346D02*
X104336346Y-98146346D01*
%TD*%
M02*
