M48
; DRILL file KiCad 10.0.4 date 2026-09-20T16:22:17
; FORMAT={-:-/ absolute / metric / decimal}
; #@! TF.CreationDate,2026-09-20T16:22:17+05:30
; #@! TF.GenerationSoftware,Kicad,Pcbnew,10.0.4
; #@! TF.FileFunction,Plated,1,4,PTH
FMAT,2
METRIC
; #@! TA.AperFunction,Plated,PTH,ViaDrill
T1C0.300
; #@! TA.AperFunction,Plated,PTH,ComponentDrill
T2C1.000
%
G90
G05
T1
X97.991Y-90.241
X102.241Y-91.241
X103.241Y-92.991
X104.491Y-96.991
X104.491Y-97.991
X104.991Y-100.741
X113.741Y-93.241
X115.741Y-97.241
X115.741Y-98.491
X124.046Y-97.39
X129.046Y-94.485
X129.046Y-95.89
T2
X96.218Y-90.601
X96.218Y-93.141
X96.218Y-95.681
X132.956Y-93.81
X132.956Y-96.35
X132.956Y-98.89
X137.546Y-93.81
X137.546Y-96.35
X137.546Y-98.89
X142.136Y-97.35
X142.136Y-99.89
X142.136Y-102.43
X146.726Y-93.81
X146.726Y-96.35
X146.726Y-98.89
X151.316Y-93.81
X151.316Y-96.35
X151.316Y-98.89
X157.591Y-93.685
X157.591Y-96.225
X157.591Y-98.765
M30
