%TF.GenerationSoftware,KiCad,Pcbnew,10.0.4*%
%TF.CreationDate,2026-09-21T10:30:39+05:30*%
%TF.ProjectId,opa656_test,6f706136-3536-45f7-9465-73742e6b6963,rev?*%
%TF.SameCoordinates,Original*%
%TF.FileFunction,Soldermask,Top*%
%TF.FilePolarity,Negative*%
%FSLAX46Y46*%
G04 Gerber Fmt 4.6, Leading zero omitted, Abs format (unit mm)*
G04 Created by KiCad (PCBNEW 10.0.4) date 2026-09-21 10:30:39*
%MOMM*%
%LPD*%
G01*
G04 APERTURE LIST*
G04 Aperture macros list*
%AMRoundRect*
0 Rectangle with rounded corners*
0 $1 Rounding radius*
0 $2 $3 $4 $5 $6 $7 $8 $9 X,Y pos of 4 corners*
0 Add a 4 corners polygon primitive as box body*
4,1,4,$2,$3,$4,$5,$6,$7,$8,$9,$2,$3,0*
0 Add four circle primitives for the rounded corners*
1,1,$1+$1,$2,$3*
1,1,$1+$1,$4,$5*
1,1,$1+$1,$6,$7*
1,1,$1+$1,$8,$9*
0 Add four rect primitives between the rounded corners*
20,1,$1+$1,$2,$3,$4,$5,0*
20,1,$1+$1,$4,$5,$6,$7,0*
20,1,$1+$1,$6,$7,$8,$9,0*
20,1,$1+$1,$8,$9,$2,$3,0*%
G04 Aperture macros list end*
%ADD10RoundRect,0.150000X-0.825000X-0.150000X0.825000X-0.150000X0.825000X0.150000X-0.825000X0.150000X0*%
%ADD11RoundRect,0.250000X0.262500X0.450000X-0.262500X0.450000X-0.262500X-0.450000X0.262500X-0.450000X0*%
%ADD12R,1.700000X1.700000*%
%ADD13C,1.700000*%
%ADD14RoundRect,0.250000X0.475000X-0.250000X0.475000X0.250000X-0.475000X0.250000X-0.475000X-0.250000X0*%
%ADD15RoundRect,0.250000X-0.262500X-0.450000X0.262500X-0.450000X0.262500X0.450000X-0.262500X0.450000X0*%
%ADD16RoundRect,0.250000X-0.250000X-0.475000X0.250000X-0.475000X0.250000X0.475000X-0.250000X0.475000X0*%
G04 APERTURE END LIST*
D10*
%TO.C,X4*%
X122321346Y-94485000D03*
X122321346Y-95755000D03*
X122321346Y-97025000D03*
X122321346Y-98295000D03*
X127271346Y-98295000D03*
X127271346Y-97025000D03*
X127271346Y-95755000D03*
X127271346Y-94485000D03*
%TD*%
D11*
%TO.C,Rpz1*%
X111928846Y-97086346D03*
X110103846Y-97086346D03*
%TD*%
D12*
%TO.C,I1*%
X96217692Y-90601346D03*
D13*
X96217692Y-93141346D03*
X96217692Y-95681346D03*
%TD*%
D14*
%TO.C,Cf1*%
X100741346Y-95191346D03*
X100741346Y-93291346D03*
%TD*%
D12*
%TO.C,v2*%
X137546346Y-93810000D03*
D13*
X137546346Y-96350000D03*
X137546346Y-98890000D03*
%TD*%
D15*
%TO.C,R1*%
X99078846Y-96991346D03*
X100903846Y-96991346D03*
%TD*%
D16*
%TO.C,Cf2*%
X113753846Y-101991346D03*
X115653846Y-101991346D03*
%TD*%
%TO.C,Cd1*%
X99341346Y-91241346D03*
X101241346Y-91241346D03*
%TD*%
D12*
%TO.C,J1*%
X157591346Y-93685000D03*
D13*
X157591346Y-96225000D03*
X157591346Y-98765000D03*
%TD*%
D15*
%TO.C,R3*%
X106578846Y-99991346D03*
X108403846Y-99991346D03*
%TD*%
D12*
%TO.C,v3*%
X142136346Y-97350000D03*
D13*
X142136346Y-99890000D03*
X142136346Y-102430000D03*
%TD*%
D16*
%TO.C,Cs1*%
X110209647Y-94910963D03*
X112109647Y-94910963D03*
%TD*%
D10*
%TO.C,X1*%
X103016346Y-94336346D03*
X103016346Y-95606346D03*
X103016346Y-96876346D03*
X103016346Y-98146346D03*
X107966346Y-98146346D03*
X107966346Y-96876346D03*
X107966346Y-95606346D03*
X107966346Y-94336346D03*
%TD*%
D15*
%TO.C,Rf2*%
X117491346Y-101991346D03*
X119316346Y-101991346D03*
%TD*%
D12*
%TO.C,v1*%
X132956346Y-93810000D03*
D13*
X132956346Y-96350000D03*
X132956346Y-98890000D03*
%TD*%
D12*
%TO.C,v4*%
X146726346Y-93810000D03*
D13*
X146726346Y-96350000D03*
X146726346Y-98890000D03*
%TD*%
D12*
%TO.C,v5*%
X151316346Y-93810000D03*
D13*
X151316346Y-96350000D03*
X151316346Y-98890000D03*
%TD*%
D10*
%TO.C,X2*%
X114266346Y-94586346D03*
X114266346Y-95856346D03*
X114266346Y-97126346D03*
X114266346Y-98396346D03*
X119216346Y-98396346D03*
X119216346Y-97126346D03*
X119216346Y-95856346D03*
X119216346Y-94586346D03*
%TD*%
M02*
